# xmcd
#
# Track frame offsets:
#	150
#	18273
#	31984
#	42348
#	55826
#	74629
#	96402
#	112386
#	131715
#	145898
#	157303
#	176487
#	198163
#	211946
#	235439
#	254538
#
# Disc length: 3531 seconds
#
# Revision: 0
# Processed by: cddbd v1.5.2PL0 Copyright (c) Steve Scherf et al.
# Submitted via: EasyCDDAExtractor 15.2.1.1
#
DISCID=f80dc910
DTITLE=Various Artist - Жырлар бэйлэме - 4
DYEAR=2003
DGENRE=Ethnic
TTITLE0=Зэйнэп Фэрхетдинова - Жэй Урмасы
TTITLE1=Фэрит Таишев - Язгыз Каен
TTITLE2=Лэйсен Гыймаева - Ай, жаный, суларда
TTITLE3=Энже Шэймурзина - Карлыгач
TTITLE4=Гузэл Уразова - Тик син дип тибэ хэзер йэрэгем
TTITLE5=Илнар Гэрэев - Ерак безнен аралар
TTITLE6=Нурзадэ - Сон мэртэбэ, сонгы кабат
TTITLE7=Зэфэр Хэйретдинов - Мин бэхетле син булганда
TTITLE8=Резидэ Шэрэфиева - Яратмыймын дисен, э узен
TTITLE9=Рафаил Сафин - Эрбет
TTITLE10=Гэлнара Тимержанова - Айрат Ильясов - Бэхетем син
TTITLE11=Мэликэ - Ник кэтмэден
TTITLE12=Мэулидэ Нургали - Булэк итэм сина
TTITLE13=Азат Тимершэех - Дуслар
TTITLE14=Алму Эбелханова - Ник килмисен
TTITLE15=Илнар Сэйфиев - Эрет мине
EXTD=
EXTT0=
EXTT1=
EXTT2=
EXTT3=
EXTT4=
EXTT5=
EXTT6=
EXTT7=
EXTT8=
EXTT9=
EXTT10=
EXTT11=
EXTT12=
EXTT13=
EXTT14=
EXTT15=
PLAYORDER=
